<mxfile host="app.diagrams.net" agent="Mozilla/5.0 (Windows NT 10.0; Win64; x64) AppleWebKit/537.36 (KHTML, like Gecko) Chrome/130.0.0.0 Safari/537.36" version="24.8.3">
  <diagram name="Page-1" id="shRbQ710pfCS10lphsdb">
    <mxGraphModel dx="3695" dy="1556" grid="1" gridSize="10" guides="1" tooltips="1" connect="1" arrows="1" fold="1" page="1" pageScale="1" pageWidth="827" pageHeight="1169" math="0" shadow="0">
      <root>
        <mxCell id="0" />
        <mxCell id="1" parent="0" />
        <mxCell id="rcaAGyWdgtO9xhbZFQl7-2" value="" style="shape=image;verticalLabelPosition=bottom;labelBackgroundColor=default;verticalAlign=top;aspect=fixed;imageAspect=0;image=data:image/png,iVBORw0KGgoAAAANSUhEUgAAAT0AAAFOCAYAAAD0LcryAAAAAXNSR0IArs4c6QAAAARnQU1BAACxjwv8YQUAAAAJcEhZcwAADsMAAA7DAcdvqGQAAABhaVRYdFNuaXBNZXRhZGF0YQAAAAAAeyJjbGlwUG9pbnRzIjpbeyJ4IjowLCJ5IjowfSx7IngiOjMxNywieSI6MH0seyJ4IjozMTcsInkiOjMzNH0seyJ4IjowLCJ5IjozMzR9XX1nvdBrAAAoNklEQVR4Xu3dB3RUVRoH8H9674WEFgyhhCSANKl2dEVdG01RQDoICoIUFV3LriJFAaWEKkVRbOiKuhYUpEgvIST0FkiBFNIb7Nznc1eBZF5m5k3em/f/neOB3Dl7l0z55pbv3s/pignMyM3Nlf9WvcDAQPlv5rFP89inMuzTPPb5f87yn0REhuCUk5NjdqSnNPoqjbwC+zSPfSrDPs1jn//HkR4RGQqDHhEZCoMeERkKgx4RGQqDHhEZitVBT0GaHxGRZlgd9BaN3Y30EwW4cpnBj4i0z+qgl5tRgneHbsfsIdtRdKlCbiUi0iabrOmJGW7WqUKsmpSCjavPya1ERNpj3dlb0/9ywYgk5F8okxt+5xPojm59GqLjA/Xg5uEit/6V0sxrpVnXAvs0j30qwz7N02uf1o30nOQ/r1KYW4ZNa07h3+8ewfG9OXIrEVHtsy7oVTNGLMwrx87157Bk/B4sGLMTJQVc7yOi2meTNT1zzhy6hHeHb0fSpkzu8hJRrVJlensNU5zLSS/Bh/9IMgW/Hdj2xVn5ASIi+1JteluV9OMF+GnlSSx66iAuZf11A4SISG12md5eTWx05KaXYuGIJGxYnsb8PiKyG/tMb6ux86sMrJl6GJ/886jcQkSknloZ6V3t4tkSnE0uwAcvHsaJPZfkViIi27P7ml5VyksuI+1QAb6ccRyfvXEMpYWV8iNERLZT69Pbq5WZgt+xnXl498n9SNqQLeX7ERHZilWFgUTO3fTHtiAvq1RusT3fIDfc9HAE2vQIk1uqpvQIi9LjKwL7NI99KsM+zbNHn5ob6V2tIKccG5afxQcvHGaKCxFZzcqNDDtEPZPLlVeQllKA5eMP4dt5p1CYyxQXIrKMlUHPvkfKxObGgR8vYvGYgzj4c7a0+UFEVBOa2b2tibKiSqyfexLLxiXjxN5LuMzzvESkkFVBz8nZPtPbquRlluGzfx3DqsmpKM7nlJeIzNPlSO/PxHpfxrEizB9yAOveSUVeVon8CBHRtawKelqqhFZZcQU7vzmH90bsxMaPTqGijOt9RHQtXU9vr3bZFPjEZQbfJR7DtD6bcWJ/jiZGo0SkHdaN9DS8gVCcX46Vz+/H4vG7UV7KI21E9DtVCgNpjau7Mxq3DcDfx98gpRYqzeQWlGaIs09l2Kd57FMZS/u0biNDW7PbKon1veN78jBv6AEkb8xmiguRgel+91YpkchcmFOOr2efxFt9N5uCINf7iIzIuqCnU/kXy/Dxvw5i3exUrvcRGYwhprfXk59dhu1fpWFa781Y81oSKsuZ4kJkBIYc6f1ZcUEFDvySiVkDtiH1t4uayj0kItszzJpetUy/R25GCVY8vw/LJ+/Dsd05puAnP0ZEDsWw09uqHN2Zjfen7MWMfltQVsz1PiJHw5HedYgjbWLk99ajW7Dt03S5lYgcgeHX9KojTnVs+fi8VJ83/2K5FAyJSN84vTVDBDpxTf2CYQfwfeIZpB8rkh8hIj2yrjDQlSuYbpoCqlkYSGs8fVwRfWMQ+rwQJx1v+4PSIzGC0qM27FMZ9mke+/w/runVUElhBZI3Z+H1Bzfi+N4cuZWI9MKqoKe1q6XsxhTsy0svY8n4PVj87G7s+va8/AARaZ1VQY+5bMCJfbn4ZsER/Lj0rFSukoi0zcrpLaOeIOpz7P46U7qyfs+3WazPS6RhnN7a2A+LzmDNS4dx4XQJrvA4L5HmWDe95b101yWqtC1/Nhkfv3IEeRkc9RFpiXXTWw70qiRm/qeT8pE4Kkka/YlC5URU+6yb3jLqKSLW+eYNOYC9313gqQ6iWmbd9NaIiXoWElfWf594GrP67MG5o/lSvV4isj9DFAbSGifTADk82hsPTmwM/1A3ufVaSjPOBaWZ7OxTGfZpnl775JpeLRBfMxnHirD06YPS6I9TXiL7sS7okVXEqQ6xzvfek/ux69+ZKCtmjguR2qwLehyg2ERpUSV+WnYWX848jmM785jzTaQiTm815MSeS/jsjWNIHJnEFBcilXCkp0HiGNuSZ5JRmMezvES2xpGeRpWZpryVFVzjI7I1bmRolLOLE1zd+PIQ2RqntxolKrFVsAA5kc1xKKFVIoOZiGyOa3oa5eLKJ5dIDVYWBgKmP7rZUIWB7MXD2wWD58TBJ8hVbrm+1C25cDYFyLZ3NoSzgvsNlR7dEZQeCWKfyrBP8/7oM3lTNgpzKtD+/vAqB1eW/jutXNPjop5aXFyVvTQFueX4YtoxqSrd2ZRLvMiAdK0wpxy/fZaBX1amYdfXmXKrbVkV9Hhzsnpq+txeulCKBaN34t3hO+QWIn35+I1kLJ9wCBtXp6Hgono5qlYFPd6crB5LcvTEwDvrdCFevX8jPp1+iLu/pAunk/OQ+Mwu05Q2E0W5FXKrTIVxlZUbGRzpqeWyhTeviOltaVEFdn97Hm/22oyNa07JjxBpS8rWC1jzehIWjtmFU0l50gUc9mDd9JYxTzW2uG6qOL8cG1aexLKJe6VvUy7BkhYUF5i+lL87jy/eTsWBDWbW7VR4z3J6q1GVlbb51isrqcTRXdlYNHY3ZvXfipKCSlXeSETmiFnIb1+l4fUHNuLTtw4h/6KCrA/tTW/lP8nmlKSf1IR4w+VllmL5+EPY9nm63EpkH7lZJVj49C58/d4RuUUhrY30GPXUo0ZystgcEVf7b1p9DomjDmLzR+d5azOp6pLp/fbj0rOY2W+rlFJVWdPNNc2N9DhPUo3SPD1L5WWUYu93Wfj5/TSkpRbKrUS2ITYlxMW4KyemYPfXmZrKH2VhII3y8nfF04tvgn+Ih9xyfVs+O1PzKcN1xHYJwwPPNINfiLvcojzjXmlmvMA+zdNznyK4nTqYh/cn7zMFPusuwg0I88BzH3aGUxU7ppb+O7mmR5LUbRewaNwuHNuTAwXfg0TXENkC0x/bImULWBvw1GRd0ONnQzWW5ulZSnxDX0wrxtIJe6RTHXt/4GYHKZOfXYrPZ6bgzd6bpZNBNV63q4aTCiMrjvQ0qrIW10DSjxXg63lHsGpyKgqvzpAnkolNsB3/Poc5Q7Zj5/pzUkF7W1PjU6DuajlZzN4jvasV5ZXj/JFCzBu8H1s/SZcOghMJItidOVhgGtn9ii/eTpHeK6pRYamF01uN0tJu168fnsP8YUnIy+SGldFlp5Vi/ZyTWPPSYXWDnUyNS0040tMorV0iKk7fLBqVhJWTUnE2hSkuRiMK0a+bfhwrnjuElM05cqv61Dj1xTU9jRKFgbRGzDTSjxbi09ePYt2M41KRcnJsxfmVOPhzNpY8cxCHt+Xa7VKA/1HhgD+ntxolbkPWKlG06PDWXMwbfADJG7NRdInrfY5GLK+c3JePD6emYv3ck6reb1cdNS414fRWo1w0ONK7mtit+3r2Sbw7bDsO/JzJW1wchBjNLR6TjLWvHsHFMyVya+3g9NZA9BRARI2Uj/91EPNG7kBuZu1+SMg6695JxcLhGjplpUKMsa4wkCkKiwxsFgayPQ9vVwye08JsYaBd67Pw05Iz8k+1z93LBbFdg9C5TyR8g9zk1v9TehxK6REjgX2aV22fpgiw8YNz2PNtFso0tE7rF+qOEQvj5Z+uZenvbtVIr6ozcWQ9S66L1wKx3rfv+wtY+kwy9v3nAspL9Pl7GIXIt/tixnHs+05bAe9/VJjxcHqrUVrK07NEaWEl/rPwNJaOTcbppAKu92lMbkYpVk5KkfLtjmzLRYnp9TIKq4Ieb05Wj6M8t+I+tbWvHMH74w8xxUUjDvx0ER+9fAQZx4vkFg1TYWDFkZ5GqX2fnt2YYvdlUwDPOlWMxaMP4pM3k6Wfyf62rk3HsrGH8O17p3Apq8z0xSo/oGUqvFWs/GQx6qlFy3l6lirKq5BSW2b134atX5y16W0cVLWMkwX4cclZ7PgyAxfOFMutOqG5kR6zk1WjtWNotiJq8eacL8a/5x6WriI6c4hV2tRy4WwRPptxCHMGb8fu9ZlcXpBZF/T4ZlWNw0xvqyFOciyfvA+rXtqPijJ+IG1FXAKbfqIAi8ftxq5vzsutOqW16a0aNyDQ74xSsKekoAIpWy7g9Qc3YfXLB6QPLFlu74/pWPzsHswdsh352bwV53qsCnrcvVWPXvP0LCWOPiX/moUFo3dhn+mDSzVTmFuGz2el4IuZKTi5X3lys+apMK6yrjCQyQItHVlxIC5uTpiwurPdCgNpTWh9b9wzMgbNO4bKLVVTeoJBaQa/oJc+Tx3OxNHtefj5/bMOtyuuzcJApBq9JydbSyzCr3xhP35YfhzFBbzF5WoiwB3flyMlF/+07IzjpgGp8GtxI0OzuF4qbFh5Utp9/GRaMt9vsqwzRXhn4DYsnbBXyrdzZLw52UAcNWXFEqLC1t4fMvDK/b/gdLJIcTFm9MvLKsGHryZh/sgdyDlfYog1dTV+R+uCHj+XqtHizcm1Sbz5xWUGC8fswoevJOHozmz5EcdXXFCBjWtOmUZ3vyHpl0yUmp4Hw5xq4c3JxuGIJzJs5eCmLKycuh9JmzId+tZmsa57bE825g7djp9WnEBZifFyGXlzsoE485Wplri1+cN/JGFan83Y8+0FudVxiALaM/tvxbLn9iIvs8T+tSk0gtNbAzFKcrK1RPDbsOyMVJhcOkSv86etsvyKtGkjprK56SU8oqe5kR4/l6oxespKTYgviPNHCpE46iD+s+A0Mk/q7FC9iRjJbfssA/OG7Me+HzJQUlghP2J0WlvT40hPNZc50qsxMRXa/8MFfPL6UXzz3ilpFKh5ppf5/JEi6abpTavTUFJgoE0KRWz/XHDlSKMqOdKzWGFOOZJ+uoi5A/Yj43ixZoOIuK142bOHTFPzFIfPt7OYCi8dCwNplEhZGbEwQXeFgTTHNBuJig9Et14NEBl3baGiqig9Cqb0KJTw5z6XT9mH43tyeKdgNTRZGEiV/WSSMDnZRkxf6acO5GLttEP4bv5p6SLT2iIGCZs+Po0Z/bbgxF4GPEVUGOlZFfREzIu+MUj+iWzJ2QD36dlTaWGFtN633DSdTNpwEQXZ9s3vS9mcI12a+p9Fx5CTXqKP9UYtUOG73+pPVs9JLTBuRUeE1POCEz+nNsORnjoKc8vxzbunsPr5VKQfK1J9l7wwt0KqCif+PwtyyrhJoQE2CVOh9bwxdnlHtL03HN6B1a9BkTIMeeoSGwerJqVIwU+NnfKKsiv44IVULBlzUKr/y5GdhbQ2vf0zZ2cn3DawPp6Y1hy3PFGPZ0etxORk9YnE3/SjRZgzYJ9UIays2DaBSUxlP/rHYaSlFLIuhQbZfELqH+qO9g/UwYjEBNRt6gNXD855LcGUFfspL7ks1YJNHJmEHV9myq01I8opHtqULY0cv5p1AudSC+VHyCpaXNO7HrHB4WOa5vZ7oxl6jGmEkHqe8iOk1GWDXRevBcX5FdINxItNU1JxhZXS9T6xbrfv+wv4eWUag52taXl6W5VmnQIxYFYsBr7dAm4c9SnG6W3tyTlXKl1hte3Ls3JL1UTAmz9kP75PPI2Ci7zhWQ/sEoXETmRYQ0/0n94cre8Ok1upOty91QAF3zuePi5w4vq1elR4aq0uDPRnSjOks04XYsHTu1BWVMmD9VUQo+JnV3YybGEgLbh9cAO07VH9l7RzpRfeHrBNuuCUbEsqDPRB5yqvjNdVYaCwhj4Ys7wlOvWKRFiUl9xKf8ZLRPWDl0Oox+FqZHTuFYEBM2Nx14iGTGy+ClN+9MNoNYr1rtZDjdjpbdU9FIPnxKFOtDc3O/7AwYNuqDEaod9p7+ZkGwqK9JA2OnpOjUHj9gFyq3ExT08/OCpXkQpPreaGVfVjffHw5MZod3+4tDNmVFwn0g8XXg6hIttHPc2+WuJI25gVrdDpofqGTN9g0NMPphepyYGnt1W5b3RTTPmkK3yD3eUWYzBqQWs94iacilT4GOji5fLyc8OkNV0w8M1WiGjsK7c6Nqas6AdPz6jH4VJWakIsFjdpH4LBM27E7f1vgJunY6/3cXFcP7gUoR6H3r1VytvfDXcMuEGa8sZ1C4O7l2MGP64T6Qfz9NSjxkjPqsJAV7O0SEp1zPWZfa4Un79xzPRnidziGHyC3DFgenMWBqpF9z7VBJ0fbiD/dH1pJy5ItWrJ9rRZGEgDgut6YODbsejzShP4BCqvdqV1nDLpB5ciVKTCx8Ah9p3EVLBhvB+eWdYR3QdHwztA/8GP9+npBzedVKTCU+sQQe8PPv5uuPWxRnhmyU1IuC0cru76/fV4IkM/XDjSUw9Hesr4Brmj74vx6P/PloiM8dXl9INpEPrBkZ6+OGTQ+0PjNsEYMbcdBs+8Ee4OnuJCRMo4dNATxBS3UUIgpnzaFR3urwcv0xRYD5iyoh/cdFIR1/QsJ0Z6D4xthiGzbpTq82p9ysugpx9cf1UR1/SsF3GDL24fVB/DF8bDN9hNs8HPmTd36AZHeiriSM92fIPcMHxBvHRrs3+49i4zEMXTSR8uq3BUitRTK4WBBC31WVxQgYObMvH5jBS5pfaJuwRF3iELA9UepYWBZjy2lUfRVOBQhYG0xsvXFe3uqYv+b7RC/C3hcmvt4jqRfnD9VUWinoSNMej9SbMOIeg7NQ4j57WDpykQ1uYUk+tE+sE8PTXZ/nPAoHcVJ9M3S/1m/pi67ma0viui1r7FWQ9YP3hdvIpU+Bjw1arGI8/FYuDbLXDrgPpyi/2wwpZ+qHHnG8lU+Bgw6JkhbnFpe28Y7hvbCGGN7FeYnDd36Ac3MdRk+88Bg54CIgDFdgvGwJmx+NuoKNRt6iM/oh4ujusHz0mrSIVaMQx6NZRwRwh6vdwEDeL94Oap3tPHkZ5+cNNJPYaukaEl7qZg1/eVJhixMEEaAaqCMU83GPL0hUHPCp6+LtJa3wPPRf9eotKGgYqjB/3gfXrqYWEgjWraMRAT13TB3UMaI6SebTY7mLKiH8zTU5EKycm6Lwz0Z1roU6y7fvHWcZzccwkV5Zbv6omNjOELElgYqBYpLQy0dOxBlBRUyi1kK1JhoAXxVc6gLP28c6RnY+KL6aFJ0XhqWUsEWHGRAXcE9YObTvrCoKcSdy9nDJsXjyemNZeusKoppqzoB5ci9IVBT02muBUR440hc+Nw+6AG8PBRfmU979PTD246qUiF735+suxA5POJUx0DZ7WQUlyUXGTAkZ5+8EYcFanw1DLo2ZF/qJuU4jLhg07SLm91iZdMg9APjvRUxJGeYwgI88TYZR2l3cGAcE+59a9UOH1DKhE385B+MOjVErHj1+nB+piwuhPuGREDN4+/vhScMukH8/RUxOmt4xHre117NcS4FZ3Q9KYQuHv9vtlxmTd36AZTVlTE6a3jCgj1wIB/tZIKk4c19MZl5rrqBjedVKTCSI+FgcyojT7FK/LjkjN4eFycaRRR/fcSCwOpR2lhoHeHbUdhbrncQrbCwkAGItbF7xzSwGzAI23g6RkVcXpLpD1MWVGT7aMegx6RlXhdvIp4czKR9nB6qx7enEykQUxZ0RcGPZ3z9HGFl1/1d+6Rulj3VgWm75H4W8N5czJdq83dkXhmyU2Ivy1E1UJFVDXm6dlWcF0vdO3ZEHcPieH0lq7PL8QD94yOkq6w8g9zV+WNQlXjMTTbEDOWu4Y0xviVvx/NVOvLhEHPgYjLSgfOisVDkxtLwY9ID0RwE+/XQXNa4OY+DeVW9TDoORgPbxc0busvFSa/bWD9ay4yINtjnp7lGrX2R8+pMRi+IB7e/q52maWwMJAZeu/z4KYs7P7PeZzYm4PSIh7orQmlhYESn0pCRSlz9ZQSJ448vF1x0wP10H1Q9F+u5rLH54jDAAcX1y0MT7zWEoNm3Ig60b6mb1L5AbIZjvSU8/JzQ8vb6+D5z7rhrsGNa+UuQn4EDKJ+M3+MSeyAFjeHMMXFxlgYSJmgSC9M+rgzej8fV6s73gx6BiK+VHuMiUL/6c3R9dG6citZiykr1RMbbOLKtHHLO8LNXXlxLLUw6BmQ2Cm76aE6Um3esCgvuLrzbWANnsi4Pk9fV9w9oiFGJiYgunWQZr4c+G43KPFBFbtlIsWl+7AGUvAjyzBP76/El2jcLcEYOi8OLbuHSqcrtIRBT+eK8ipQbuXOoTjNIVJcwhvJoz5+hmuE09vfieWTkPqe6D8jFj2ebgTPGtR5ticGPZ07tDkHy8cfQtqRfCi4BLtqpjfsAFPgGzS7BWK7BMuNpMRlZquYprIu6PtaM+n9E1LPQ27VJgY9B5B7vhTzRuzAqpcOIGlTptxqmYBwd9w3rpG02eET6CZ9e1P1jJyyIpZIbnooAqMWt0T9WB+5VdsY9BxIypYL+HxGChY+swvFBRVyq2XqRHtj8sddcWu/Rght4C230vUYMWXFxc0ZsV2DMWBWLG5+vK7pZ/18O7IwkBla77O6wkB3jYhCs06B0tTjD5b8OwtyypH000Vs/ui8oT7gSgsDTe+7xTTFNcbzIjbAxLrdA89F44bYOr83KqClzxFHeg7s+8RT+HDqYWSfK5VbLOMb5IaOj0Rg2Px4+Jumv3r6VrcHq9ZSdURs2PSc2gSPT2uGoEhtr9tVh0HPgV25DFw4XYxlY5Ox9rWjpr+XyI9Yxi/EDcPnxeP+Z6PRIM5PbiVHv0RUXGLRfVhDjFnRClEJvnA1TW31jEHPAMSU9OTeS/jwxVR8Ov0QCvOsqNFqGuQ16RCAh6c0lkZ/7qYPhNE5ap6e2MRq1T0Uj7wQg9Z3hzrMjT0MegZSUliJ3d+ex4x+W3Dgl0yUlVh+64q7lzO6PVYXY5a1ROvuEYY+1eFoeXpi3a5uMx8MW5CAu0Y0RL3m+tiVVYpBz4DKiivxyRvJmDt0O04lKVsMrooY5fSa3ALj3u8I7wA3udVYHGl66x/qgc69I/HYP5uZ/u6YryeDnkFVlF9G9rliLH1uL5ZM2IP8bOs2OwLDPTFlbVf0nRon/d1IHKEEpAjcPU1fXqMTO6BTzwiHzs9k0DO4irLLOL4nB2/13YKfV59EQW6Z/EjNiWlRwq11MGpBe9w9rLFhbm3Wc7FvsUkR0zYYj74cjxu7R8DHAKN1Bj2SiM2OH5Ydl6a8+zdkoNwUDC0lPjg394nCpI+7Iu7mMLh5OvZmh15PZEQlBJiCXQKefKs1YjuHyq2Oj0GP/kekmxVkl+Gj1w/inSe3SZcZWMPL1xWPmT5UQ9++EfWa+jnslKlSRwnb4jUQa6+xXcIw7J22aNLOeOesGfTounLTSzB/6AGseemw1be41Gvqj+Fz22HY7LbwdMBbm/UUy29+NApPL+qAx19NkFuMh4WBzNB6n7vWZ+GnJWfkn9Qh1uba/q0u7n+6qdzyVzX53a+UeGDXd+ex/ctzKLRi/dAeFBcGGpUkrY1qldik8A5wwR2DG6DJTebfe47+OeJIj8wSI71t685i+mNbpPU+a87fBkV44c4B0RizqD3a3B0pt+qblm9OjozxMwXvGIxITFAU8IyAQY8Uy80okdb7pvXZjDMpl+RWy/gFe+CRibHo80Ic6jb103WumxZPZIiE6aYdQjBoemvc9Pf6cisJDHpUYwU5ZVg4eifWvZMqt1hOlAMcMbcdBs+6UbquSI+cNfbPbtQyUCqxOOCNVvD2N2bCeHUY9MgiYqd3+1dpeP2hTfjm3VNWbXaIUUlUXABe/KIbWt+p/LoirdBKcrJfiDuGvtMGQ2a1gacPy3xWhUGPrFJ8qRxJGy7iq7dP4PA25YvQ1+Pu6YJeU+Iw4r12aHNvuG5SXGr7jkHfYHfcPbQxxq/qjEYJgQ6bGmQrDHpkE8d25GHd9ONYNTkVaSmFuGLFpZoNmvvjtoH1MHR+vDR60braSk4Wlzzc+ngjjDR9SdzcNwpuBr70oSb4LJFNnT9SiK/nnMChX3NQmGt5crOzsxMCwtwxIjEetw6oL02Btcru01vTUxFQx0Pake3+ZLThzjpbi0GPbC4vowxfzz6J9yccwsZV5+RWy7X/e7j0ARdFyrV4a7M9U1bqNffFQ5MbY+h7cfDy412GlmDQI9UU5pRjx5cZWPpMMi6ete7WZu8AVwxfEC/VZohq6f97o0bYI2XF3csFdw5pgEdeaIyYdgFct7MCCwOZofU+qysMpDXistGEOwMREWO+ulp1v3tJYQXOpl7C6pcOoLykUtpJVoPSwkCzn/xN+jepQQQ7cQtK7+dbwM3j2pEdP0fmXd0nR3pkN3u/T8e6Gcfx0T+OoLLc8kgl0jFi2gTjpS9vRtwt4XD3rN23sRojPSdnJzSMC8CYRR3Q75WE6wY8sgyDHtnVpawynE0uwILhB5C6Vdk3dVVEYHh0ajyeeCsWnfs4xpG2P4xObC/l3AVHesktZCsMemR3Iq9NXFu1fs5JrH31KHZ9nSk/Ypngeh7o+HCEtMAvNjvszVYpK96BbrhrZBSmrrsZETf4SjvYZHsMelRrxM0kJ/ddwta16fjt8wzkZlh+64pIaYlpHyBtdtwzOkq6EdhebJGy0vbecAye3QKt7gyBpy9PU6iJQY9qXXF+BTauSsPqKSlSALQ2iMTfFoJhpuAngqA9UlwsvS5e/NuiWvqh/1vNcfug+qZgx3U7e2DQI80QU95f15zDvMH7kXWmSG61jKePizTdfXpFa0S1UjfFxZJjaGJXduDMFuj1UhPUaWx+N5tsh0GPNKekoBLvDd+O5ZP34kxyntxqGVd3J/R+KUYqWO0X6iG32lZNTouIfMM2PcIxakmCtBbJfDv7Y9AjTRK3thzZkS2VqPw28SiKLpXLj1gmuo0/JqzshB4jY6RRli0puQtQBMa294VL9WTvGFzfMJXitIjPPGlaWUklNn10GnMG/4ad35xDaZHlScDigH6Xng2l3dFWd9SxWZW26vL0xP+nuCT1zkHRuP3J+giKVGe0Scox6JEu5GeX4fMZKXh7wDapSLmCg0RVEmdlez8fh+dWd0JoA+vX06qa3ood5N4vxOGp+e2lkpikDSwMZIbW+7RHYSCtEUnJDeJ88bdRUQgId7fq+RQnQ07uy8f3i04j/8JfU2aUFgZaNi5Z2oH+g5g+h9/gJW1SiID4x7od3/Pm2aNPjvRId8RdfeJUx4qJKfhuwWlpCmwpkTbSuJ0/Br3TQqoWZkl+359TbOJuCTYFuxg8+lpTuJr65kaF9jDokS6JNJES0+hq//cXMKPfVuxYfw4lVqz3uXs5o02PMGmXV+yuitFkTfgEumHwnDjcNaIh6jb1kVtJixj0SPdE/dz1845g2XN7kXW60Kr1vnrNfaTd1fErOyKkvvn1Pp9AV7S5J+x/KShi44K0ja8QOYSy4kqcTbmE2YO3Y47pvwIrC4mL+rzNOoTIP1XDNCDs1q+u/APpAYMeORSx3pd9vhhzhmzHhtUna71oD2kPgx45HHGRQWFOGX5Yehxv9t6MbevOqnbRKOkPgx45NLHe99OKE5jRbwuy00rlVjIyBj1yeIW55cjNKMGKiYewakqq/auXkaYw6JFhlJdclkpUzn58L45szwMY+wyJhYHM0HqfeioMpDWiBkWbuyPR/t5rd1/5/jRPr31ypEeGdfpgHr6ak4o3ev2KvKxSjvwMgkGPDE2s7xVkl+Gtvpvx7aKjKClQp5QjaQeDHpHs17VnMKv/VunWZm52OC4GPSKZSGwuzCvHO09uw6f/PIr0o9ZdWU/axKBHdDXTIO/U/nykHS6UG8iRMOgRkaEw6BGRoTDoEZGhMOgRkaEw6BGRobAwkBla79OIhYHsRUlhIL4/ldFSnxzpEZGhMOgRkaEw6BGRoTDoEZGhMOgRkaEw6BGRoTDoEZGhMOgRkaEw6BGRobAwkBla75OFgdRz++AGaNsjTP7p+vj+VEZLfXKkR0SGwqBHRIbCoEdEhsKgR0SGwqBHRIbCoEdEhsKgR0SGwqBHRIbCoEdEhsKgR0SGwsJAZmi9TxYGUg8LA1VPr31ypEdEhsKgR0SGwqBHRIbCoEdEhsKgR0SGwqBHRIbCoEdEhsKgR0SGwqBHRIbCwkBmaL1PFgZSDwsDVU+vfXKkR0SGwqBHRIbCoEdEhsKgR0SGwqBHRIbCoEdEhsKgR0SGwqBHRIbCoEdEhsKgR0SGwsJAZmi9TxYGUg8LA1VPr31ypKdzLq5O8t+ISAkGPZ1r1T0UgREecHJm8CNSgkFP55xMsW7oe3F4an47xLQNlluJqCoMeg4iMsYPA6e1Mv3XGt7+bnIrEV2NQc+BOJmGfU3aBeP5z7qh/X114R/qIT9CRH9g0HNAYsr74LjmGDa7DW55LIrrfUR/wqDnwIIivHDnwGiMXtieoz4iGYOeg3N2cUJEtC8mrumCB8c3R71YX/kRImNi0DMIMeVt36MuHp7SGO3+XgdunnzpyZhYGMgMR+2zouwyVrywD2dTLqG0qFJqo79iYaDq6bVPft0blKu7M56c1hrD57ZFUISn3Erk+Bj0DEzs6tZp5Iuxyzui36sJ8A1ylx8hclwMegRXN2e06BKGCas74dZ+jeDl6yo/QuR4GPTof9w8XNB9UDTGreiEZh1D5FYix8KgR9fwCXBD/3+2ks70BtfzNM2D5QeIHACDHlVJ3N4yYEYsek1tAg9vF7mVSN8Y9Kharu5OaNTKD0Pnx6PdfeFyK5F+MeiRIl6+LrjtyfoYviAeMR0CpZMeRHrEoEc14h/mjocmRaNjzwgERfI8L+kPgx5ZpEvvSPSfEYv7x0dz1Ee6wsJAZrDP6olDjJnnL+KLt44j/WgRyood50gbCwNVT699cqRHVhEXGYid3T7/aIIHJ0Yjum2A/AiRNjHokc1EtfTDg89FY+i8eHgHuPLyUtIkBj2yKRc3JwTWcceIxAS0u58pLqQ9DHqkClGP99b+9TBycQJ8g9242UGawaBHqvINcpNGfX97Koq3NpMmMOiR6sRmR9wtwXjstabo9XwL6WIDotrCoEf2Ywp+re+IwIvruqFhXAA8fXiFFdkfgx7Znbi/b/icthid2B6t7qgjtxLZB4Me1RpRorLXlDg8MjEWPoHc7CD7YGEgM9inebbo88plYMva8zj4SzbyMkrl1trFwkDV02ufHOmRJjiZ3old+kRi2HtxaBDnx1EfqYZBj7TFFOv6vNIEE1Z1Qt0mfnIjke0w6JHmiBSXgHBPDHm7DQa82Yq3NpNNMeiRZnl4uaBp+xBMXttVuu3Ey89NfoTIcgx6pHnuni7SNU+j5rdD806hXO8jqzDokW4ER3rhiddbYuJHXeAXzMLkZBkGPdIdvyB3PLuyEx6ZFAv/UF5ZTzXDoEe6JKa8be6KxNOLO6Br37pw8+RbmZThO4V0TWxudOoVgZ4vxqBx+wC4efAtTdXjO4QcQv1YXzw8uTEGzIyFX4i7lPZCdD0sDGQG+zRPa31WVlzBLx+cxLYv01CYUya31hwLA1VPr31ypEcOR9zafHv/GzDy3ba4Z2QMU1zoLxj0yGGJW1y69myISR93kY60ubrz7U4MemQAvoHueGpBe9wzOgr1mvPKeqNj0CPDaN4lCL1fjsHjbzaXW8iIGPTIUMQUN7KJNwbOikWr7qFyKxkJgx4ZUliUF+4a0VAKfp5+rtzsMBAGPTI0EfzGLG+Jzr0jEdrAU24lR8agR2TSqWcE+rzSFD2ebiRdZEqOi0GPSOYd4IoW3YIxcGYsb212YCwMZAb7NM9R+6wsvwIXt+qHfXw+ldFSnxzpEVXBXMAjfWLQIyJDYdAjIkNh0CMiQ2HQIyJDYdAjIgMB/gu4DjuWsWPknAAAAABJRU5ErkJggg==;" parent="1" vertex="1">
          <mxGeometry x="-120" y="255" width="67.97" height="71.6" as="geometry" />
        </mxCell>
        <mxCell id="rcaAGyWdgtO9xhbZFQl7-3" value="" style="endArrow=classic;html=1;rounded=0;exitX=1;exitY=0.5;exitDx=0;exitDy=0;" parent="1" source="rcaAGyWdgtO9xhbZFQl7-2" edge="1">
          <mxGeometry width="50" height="50" relative="1" as="geometry">
            <mxPoint x="57.97" y="370" as="sourcePoint" />
            <mxPoint x="127.97" y="290" as="targetPoint" />
          </mxGeometry>
        </mxCell>
        <mxCell id="rcaAGyWdgtO9xhbZFQl7-5" value="backend" style="edgeLabel;html=1;align=center;verticalAlign=middle;resizable=0;points=[];" parent="rcaAGyWdgtO9xhbZFQl7-3" vertex="1" connectable="0">
          <mxGeometry x="-0.2449" y="1" relative="1" as="geometry">
            <mxPoint as="offset" />
          </mxGeometry>
        </mxCell>
        <mxCell id="rcaAGyWdgtO9xhbZFQl7-4" value="Terraform config files" style="text;html=1;align=center;verticalAlign=middle;whiteSpace=wrap;rounded=0;fontSize=25;" parent="1" vertex="1">
          <mxGeometry x="119.97" y="10" width="370" height="60" as="geometry" />
        </mxCell>
        <mxCell id="rcaAGyWdgtO9xhbZFQl7-6" value="State file S3" style="sketch=0;outlineConnect=0;fontColor=#232F3E;gradientColor=none;strokeColor=#ffffff;fillColor=#232F3E;dashed=0;verticalLabelPosition=middle;verticalAlign=bottom;align=center;html=1;whiteSpace=wrap;fontSize=10;fontStyle=1;spacing=3;shape=mxgraph.aws4.productIcon;prIcon=mxgraph.aws4.s3;" parent="1" vertex="1">
          <mxGeometry x="127.97" y="255" width="70" height="85" as="geometry" />
        </mxCell>
        <mxCell id="rcaAGyWdgtO9xhbZFQl7-8" value="" style="endArrow=classic;startArrow=classic;html=1;rounded=0;entryX=0;entryY=0.75;entryDx=0;entryDy=0;entryPerimeter=0;" parent="1" source="rcaAGyWdgtO9xhbZFQl7-6" target="rcaAGyWdgtO9xhbZFQl7-7" edge="1">
          <mxGeometry width="50" height="50" relative="1" as="geometry">
            <mxPoint x="177.97" y="290" as="sourcePoint" />
            <mxPoint x="227.97" y="240" as="targetPoint" />
          </mxGeometry>
        </mxCell>
        <mxCell id="rcaAGyWdgtO9xhbZFQl7-9" value="Lock DynamoDB" style="text;html=1;align=center;verticalAlign=middle;whiteSpace=wrap;rounded=0;" parent="1" vertex="1">
          <mxGeometry x="356.97" y="240" width="60" height="30" as="geometry" />
        </mxCell>
        <mxCell id="rcaAGyWdgtO9xhbZFQl7-10" value="AWS Account" style="points=[[0,0],[0.25,0],[0.5,0],[0.75,0],[1,0],[1,0.25],[1,0.5],[1,0.75],[1,1],[0.75,1],[0.5,1],[0.25,1],[0,1],[0,0.75],[0,0.5],[0,0.25]];outlineConnect=0;gradientColor=none;html=1;whiteSpace=wrap;fontSize=12;fontStyle=0;container=1;pointerEvents=0;collapsible=0;recursiveResize=0;shape=mxgraph.aws4.group;grIcon=mxgraph.aws4.group_account;strokeColor=#CD2264;fillColor=none;verticalAlign=top;align=left;spacingLeft=30;fontColor=#CD2264;dashed=0;" parent="1" vertex="1">
          <mxGeometry x="67.97" y="120" width="440" height="300" as="geometry" />
        </mxCell>
        <mxCell id="rcaAGyWdgtO9xhbZFQl7-7" value="" style="sketch=0;points=[[0,0,0],[0.25,0,0],[0.5,0,0],[0.75,0,0],[1,0,0],[0,1,0],[0.25,1,0],[0.5,1,0],[0.75,1,0],[1,1,0],[0,0.25,0],[0,0.5,0],[0,0.75,0],[1,0.25,0],[1,0.5,0],[1,0.75,0]];outlineConnect=0;fontColor=#232F3E;fillColor=#C925D1;strokeColor=#ffffff;dashed=0;verticalLabelPosition=bottom;verticalAlign=top;align=center;html=1;fontSize=12;fontStyle=0;aspect=fixed;shape=mxgraph.aws4.resourceIcon;resIcon=mxgraph.aws4.dynamodb;" parent="rcaAGyWdgtO9xhbZFQl7-10" vertex="1">
          <mxGeometry x="280" y="120" width="78" height="78" as="geometry" />
        </mxCell>
        <mxCell id="rcaAGyWdgtO9xhbZFQl7-11" value="AWS Account" style="points=[[0,0],[0.25,0],[0.5,0],[0.75,0],[1,0],[1,0.25],[1,0.5],[1,0.75],[1,1],[0.75,1],[0.5,1],[0.25,1],[0,1],[0,0.75],[0,0.5],[0,0.25]];outlineConnect=0;gradientColor=none;html=1;whiteSpace=wrap;fontSize=12;fontStyle=0;container=1;pointerEvents=0;collapsible=0;recursiveResize=0;shape=mxgraph.aws4.group;grIcon=mxgraph.aws4.group_account;strokeColor=#CD2264;fillColor=none;verticalAlign=top;align=center;spacingLeft=30;fontColor=#CD2264;dashed=0;" parent="1" vertex="1">
          <mxGeometry x="-190" y="710" width="2210" height="1290" as="geometry" />
        </mxCell>
        <mxCell id="rcaAGyWdgtO9xhbZFQl7-17" value="" style="sketch=0;points=[[0,0,0],[0.25,0,0],[0.5,0,0],[0.75,0,0],[1,0,0],[0,1,0],[0.25,1,0],[0.5,1,0],[0.75,1,0],[1,1,0],[0,0.25,0],[0,0.5,0],[0,0.75,0],[1,0.25,0],[1,0.5,0],[1,0.75,0]];outlineConnect=0;fontColor=#232F3E;fillColor=#ED7100;strokeColor=#ffffff;dashed=0;verticalLabelPosition=bottom;verticalAlign=top;align=center;html=1;fontSize=12;fontStyle=0;aspect=fixed;shape=mxgraph.aws4.resourceIcon;resIcon=mxgraph.aws4.ecr;" parent="rcaAGyWdgtO9xhbZFQl7-11" vertex="1">
          <mxGeometry x="1961" y="590" width="78" height="78" as="geometry" />
        </mxCell>
        <mxCell id="XC14MiKw7ppD5O83fr_L-34" value="Region" style="points=[[0,0],[0.25,0],[0.5,0],[0.75,0],[1,0],[1,0.25],[1,0.5],[1,0.75],[1,1],[0.75,1],[0.5,1],[0.25,1],[0,1],[0,0.75],[0,0.5],[0,0.25]];outlineConnect=0;gradientColor=none;html=1;whiteSpace=wrap;fontSize=12;fontStyle=0;container=1;pointerEvents=0;collapsible=0;recursiveResize=0;shape=mxgraph.aws4.group;grIcon=mxgraph.aws4.group_region;strokeColor=#00A4A6;fillColor=none;verticalAlign=top;align=left;spacingLeft=30;fontColor=#147EBA;dashed=1;" parent="rcaAGyWdgtO9xhbZFQl7-11" vertex="1">
          <mxGeometry x="100" y="30" width="1830" height="1240" as="geometry" />
        </mxCell>
        <mxCell id="rcaAGyWdgtO9xhbZFQl7-13" value="VPC" style="points=[[0,0],[0.25,0],[0.5,0],[0.75,0],[1,0],[1,0.25],[1,0.5],[1,0.75],[1,1],[0.75,1],[0.5,1],[0.25,1],[0,1],[0,0.75],[0,0.5],[0,0.25]];outlineConnect=0;gradientColor=none;html=1;whiteSpace=wrap;fontSize=12;fontStyle=0;container=1;pointerEvents=0;collapsible=0;recursiveResize=0;shape=mxgraph.aws4.group;grIcon=mxgraph.aws4.group_vpc2;strokeColor=#8C4FFF;fillColor=none;verticalAlign=top;align=left;spacingLeft=30;fontColor=#AAB7B8;dashed=0;" parent="XC14MiKw7ppD5O83fr_L-34" vertex="1">
          <mxGeometry x="70" y="30" width="1690" height="1180" as="geometry" />
        </mxCell>
        <mxCell id="XC14MiKw7ppD5O83fr_L-67" value="" style="rounded=0;whiteSpace=wrap;html=1;" parent="rcaAGyWdgtO9xhbZFQl7-13" vertex="1">
          <mxGeometry x="70" y="400" width="1510" height="280" as="geometry" />
        </mxCell>
        <mxCell id="XC14MiKw7ppD5O83fr_L-35" value="Availability Zone" style="fillColor=none;strokeColor=#147EBA;dashed=1;verticalAlign=top;fontStyle=0;fontColor=#147EBA;whiteSpace=wrap;html=1;" parent="rcaAGyWdgtO9xhbZFQl7-13" vertex="1">
          <mxGeometry x="70" y="90" width="500" height="910" as="geometry" />
        </mxCell>
        <mxCell id="XC14MiKw7ppD5O83fr_L-15" value="Public subnet" style="points=[[0,0],[0.25,0],[0.5,0],[0.75,0],[1,0],[1,0.25],[1,0.5],[1,0.75],[1,1],[0.75,1],[0.5,1],[0.25,1],[0,1],[0,0.75],[0,0.5],[0,0.25]];outlineConnect=0;gradientColor=none;html=1;whiteSpace=wrap;fontSize=12;fontStyle=0;container=1;pointerEvents=0;collapsible=0;recursiveResize=0;shape=mxgraph.aws4.group;grIcon=mxgraph.aws4.group_security_group;grStroke=0;strokeColor=#7AA116;fillColor=#F2F6E8;verticalAlign=top;align=left;spacingLeft=30;fontColor=#248814;dashed=0;" parent="rcaAGyWdgtO9xhbZFQl7-13" vertex="1">
          <mxGeometry x="160" y="150" width="300" height="220" as="geometry" />
        </mxCell>
        <mxCell id="XC14MiKw7ppD5O83fr_L-38" value="Private subnet" style="points=[[0,0],[0.25,0],[0.5,0],[0.75,0],[1,0],[1,0.25],[1,0.5],[1,0.75],[1,1],[0.75,1],[0.5,1],[0.25,1],[0,1],[0,0.75],[0,0.5],[0,0.25]];outlineConnect=0;gradientColor=none;html=1;whiteSpace=wrap;fontSize=12;fontStyle=0;container=1;pointerEvents=0;collapsible=0;recursiveResize=0;shape=mxgraph.aws4.group;grIcon=mxgraph.aws4.group_security_group;grStroke=0;strokeColor=#00A4A6;fillColor=#E6F6F7;verticalAlign=top;align=left;spacingLeft=30;fontColor=#147EBA;dashed=0;" parent="rcaAGyWdgtO9xhbZFQl7-13" vertex="1">
          <mxGeometry x="160" y="430" width="290" height="210" as="geometry" />
        </mxCell>
        <mxCell id="XC14MiKw7ppD5O83fr_L-16" value="" style="outlineConnect=0;dashed=0;verticalLabelPosition=bottom;verticalAlign=top;align=center;html=1;shape=mxgraph.aws3.ec2_compute_container;fillColor=#F58534;gradientColor=none;" parent="rcaAGyWdgtO9xhbZFQl7-13" vertex="1">
          <mxGeometry x="280" y="500" width="60" height="34.5" as="geometry" />
        </mxCell>
        <mxCell id="XC14MiKw7ppD5O83fr_L-39" value="Private subnet" style="points=[[0,0],[0.25,0],[0.5,0],[0.75,0],[1,0],[1,0.25],[1,0.5],[1,0.75],[1,1],[0.75,1],[0.5,1],[0.25,1],[0,1],[0,0.75],[0,0.5],[0,0.25]];outlineConnect=0;gradientColor=none;html=1;whiteSpace=wrap;fontSize=12;fontStyle=0;container=1;pointerEvents=0;collapsible=0;recursiveResize=0;shape=mxgraph.aws4.group;grIcon=mxgraph.aws4.group_security_group;grStroke=0;strokeColor=#00A4A6;fillColor=#E6F6F7;verticalAlign=top;align=left;spacingLeft=30;fontColor=#147EBA;dashed=0;" parent="rcaAGyWdgtO9xhbZFQl7-13" vertex="1">
          <mxGeometry x="170" y="720" width="290" height="210" as="geometry" />
        </mxCell>
        <mxCell id="XC14MiKw7ppD5O83fr_L-40" value="" style="sketch=0;points=[[0,0,0],[0.25,0,0],[0.5,0,0],[0.75,0,0],[1,0,0],[0,1,0],[0.25,1,0],[0.5,1,0],[0.75,1,0],[1,1,0],[0,0.25,0],[0,0.5,0],[0,0.75,0],[1,0.25,0],[1,0.5,0],[1,0.75,0]];outlineConnect=0;fontColor=#232F3E;fillColor=#C925D1;strokeColor=#ffffff;dashed=0;verticalLabelPosition=bottom;verticalAlign=top;align=center;html=1;fontSize=12;fontStyle=0;aspect=fixed;shape=mxgraph.aws4.resourceIcon;resIcon=mxgraph.aws4.rds;" parent="XC14MiKw7ppD5O83fr_L-39" vertex="1">
          <mxGeometry x="106" y="60" width="78" height="78" as="geometry" />
        </mxCell>
        <mxCell id="XC14MiKw7ppD5O83fr_L-69" value="RDS_host&lt;br&gt;port 5432" style="text;html=1;align=center;verticalAlign=middle;whiteSpace=wrap;rounded=0;" parent="XC14MiKw7ppD5O83fr_L-39" vertex="1">
          <mxGeometry x="110" y="138" width="60" height="30" as="geometry" />
        </mxCell>
        <mxCell id="XC14MiKw7ppD5O83fr_L-41" value="Availability Zone" style="fillColor=none;strokeColor=#147EBA;dashed=1;verticalAlign=top;fontStyle=0;fontColor=#147EBA;whiteSpace=wrap;html=1;" parent="rcaAGyWdgtO9xhbZFQl7-13" vertex="1">
          <mxGeometry x="630" y="90" width="500" height="910" as="geometry" />
        </mxCell>
        <mxCell id="XC14MiKw7ppD5O83fr_L-42" value="Public subnet" style="points=[[0,0],[0.25,0],[0.5,0],[0.75,0],[1,0],[1,0.25],[1,0.5],[1,0.75],[1,1],[0.75,1],[0.5,1],[0.25,1],[0,1],[0,0.75],[0,0.5],[0,0.25]];outlineConnect=0;gradientColor=none;html=1;whiteSpace=wrap;fontSize=12;fontStyle=0;container=1;pointerEvents=0;collapsible=0;recursiveResize=0;shape=mxgraph.aws4.group;grIcon=mxgraph.aws4.group_security_group;grStroke=0;strokeColor=#7AA116;fillColor=#F2F6E8;verticalAlign=top;align=left;spacingLeft=30;fontColor=#248814;dashed=0;" parent="rcaAGyWdgtO9xhbZFQl7-13" vertex="1">
          <mxGeometry x="720" y="150" width="300" height="220" as="geometry" />
        </mxCell>
        <mxCell id="rcaAGyWdgtO9xhbZFQl7-15" value="" style="outlineConnect=0;dashed=0;verticalLabelPosition=bottom;verticalAlign=top;align=center;html=1;shape=mxgraph.aws3.application_load_balancer;fillColor=#F58534;gradientColor=none;" parent="XC14MiKw7ppD5O83fr_L-42" vertex="1">
          <mxGeometry x="115.5" y="77" width="69" height="66" as="geometry" />
        </mxCell>
        <mxCell id="XC14MiKw7ppD5O83fr_L-43" value="Private subnet" style="points=[[0,0],[0.25,0],[0.5,0],[0.75,0],[1,0],[1,0.25],[1,0.5],[1,0.75],[1,1],[0.75,1],[0.5,1],[0.25,1],[0,1],[0,0.75],[0,0.5],[0,0.25]];outlineConnect=0;gradientColor=none;html=1;whiteSpace=wrap;fontSize=12;fontStyle=0;container=1;pointerEvents=0;collapsible=0;recursiveResize=0;shape=mxgraph.aws4.group;grIcon=mxgraph.aws4.group_security_group;grStroke=0;strokeColor=#00A4A6;fillColor=#E6F6F7;verticalAlign=top;align=left;spacingLeft=30;fontColor=#147EBA;dashed=0;" parent="rcaAGyWdgtO9xhbZFQl7-13" vertex="1">
          <mxGeometry x="720" y="430" width="290" height="210" as="geometry" />
        </mxCell>
        <mxCell id="XC14MiKw7ppD5O83fr_L-44" value="" style="outlineConnect=0;dashed=0;verticalLabelPosition=bottom;verticalAlign=top;align=center;html=1;shape=mxgraph.aws3.ec2_compute_container;fillColor=#F58534;gradientColor=none;" parent="rcaAGyWdgtO9xhbZFQl7-13" vertex="1">
          <mxGeometry x="840" y="500" width="60" height="34.5" as="geometry" />
        </mxCell>
        <mxCell id="XC14MiKw7ppD5O83fr_L-45" value="Private subnet" style="points=[[0,0],[0.25,0],[0.5,0],[0.75,0],[1,0],[1,0.25],[1,0.5],[1,0.75],[1,1],[0.75,1],[0.5,1],[0.25,1],[0,1],[0,0.75],[0,0.5],[0,0.25]];outlineConnect=0;gradientColor=none;html=1;whiteSpace=wrap;fontSize=12;fontStyle=0;container=1;pointerEvents=0;collapsible=0;recursiveResize=0;shape=mxgraph.aws4.group;grIcon=mxgraph.aws4.group_security_group;grStroke=0;strokeColor=#00A4A6;fillColor=#E6F6F7;verticalAlign=top;align=left;spacingLeft=30;fontColor=#147EBA;dashed=0;" parent="rcaAGyWdgtO9xhbZFQl7-13" vertex="1">
          <mxGeometry x="730" y="720" width="290" height="210" as="geometry" />
        </mxCell>
        <mxCell id="XC14MiKw7ppD5O83fr_L-73" value="" style="sketch=0;outlineConnect=0;fontColor=#232F3E;gradientColor=none;fillColor=#C925D1;strokeColor=none;dashed=0;verticalLabelPosition=bottom;verticalAlign=top;align=center;html=1;fontSize=12;fontStyle=0;aspect=fixed;pointerEvents=1;shape=mxgraph.aws4.elasticache_for_redis;" parent="XC14MiKw7ppD5O83fr_L-45" vertex="1">
          <mxGeometry x="101" y="50" width="78" height="69" as="geometry" />
        </mxCell>
        <mxCell id="XC14MiKw7ppD5O83fr_L-47" value="Availability Zone" style="fillColor=none;strokeColor=#147EBA;dashed=1;verticalAlign=top;fontStyle=0;fontColor=#147EBA;whiteSpace=wrap;html=1;" parent="rcaAGyWdgtO9xhbZFQl7-13" vertex="1">
          <mxGeometry x="1160" y="90" width="500" height="910" as="geometry" />
        </mxCell>
        <mxCell id="XC14MiKw7ppD5O83fr_L-48" value="Public subnet" style="points=[[0,0],[0.25,0],[0.5,0],[0.75,0],[1,0],[1,0.25],[1,0.5],[1,0.75],[1,1],[0.75,1],[0.5,1],[0.25,1],[0,1],[0,0.75],[0,0.5],[0,0.25]];outlineConnect=0;gradientColor=none;html=1;whiteSpace=wrap;fontSize=12;fontStyle=0;container=1;pointerEvents=0;collapsible=0;recursiveResize=0;shape=mxgraph.aws4.group;grIcon=mxgraph.aws4.group_security_group;grStroke=0;strokeColor=#7AA116;fillColor=#F2F6E8;verticalAlign=top;align=left;spacingLeft=30;fontColor=#248814;dashed=0;" parent="rcaAGyWdgtO9xhbZFQl7-13" vertex="1">
          <mxGeometry x="1250" y="150" width="300" height="220" as="geometry" />
        </mxCell>
        <mxCell id="XC14MiKw7ppD5O83fr_L-49" value="Private subnet" style="points=[[0,0],[0.25,0],[0.5,0],[0.75,0],[1,0],[1,0.25],[1,0.5],[1,0.75],[1,1],[0.75,1],[0.5,1],[0.25,1],[0,1],[0,0.75],[0,0.5],[0,0.25]];outlineConnect=0;gradientColor=none;html=1;whiteSpace=wrap;fontSize=12;fontStyle=0;container=1;pointerEvents=0;collapsible=0;recursiveResize=0;shape=mxgraph.aws4.group;grIcon=mxgraph.aws4.group_security_group;grStroke=0;strokeColor=#00A4A6;fillColor=#E6F6F7;verticalAlign=top;align=left;spacingLeft=30;fontColor=#147EBA;dashed=0;" parent="rcaAGyWdgtO9xhbZFQl7-13" vertex="1">
          <mxGeometry x="1250" y="430" width="290" height="210" as="geometry" />
        </mxCell>
        <mxCell id="XC14MiKw7ppD5O83fr_L-50" value="" style="outlineConnect=0;dashed=0;verticalLabelPosition=bottom;verticalAlign=top;align=center;html=1;shape=mxgraph.aws3.ec2_compute_container;fillColor=#F58534;gradientColor=none;" parent="rcaAGyWdgtO9xhbZFQl7-13" vertex="1">
          <mxGeometry x="1370" y="500" width="60" height="34.5" as="geometry" />
        </mxCell>
        <mxCell id="XC14MiKw7ppD5O83fr_L-51" value="Private subnet" style="points=[[0,0],[0.25,0],[0.5,0],[0.75,0],[1,0],[1,0.25],[1,0.5],[1,0.75],[1,1],[0.75,1],[0.5,1],[0.25,1],[0,1],[0,0.75],[0,0.5],[0,0.25]];outlineConnect=0;gradientColor=none;html=1;whiteSpace=wrap;fontSize=12;fontStyle=0;container=1;pointerEvents=0;collapsible=0;recursiveResize=0;shape=mxgraph.aws4.group;grIcon=mxgraph.aws4.group_security_group;grStroke=0;strokeColor=#00A4A6;fillColor=#E6F6F7;verticalAlign=top;align=left;spacingLeft=30;fontColor=#147EBA;dashed=0;" parent="rcaAGyWdgtO9xhbZFQl7-13" vertex="1">
          <mxGeometry x="1260" y="720" width="290" height="210" as="geometry" />
        </mxCell>
        <mxCell id="XC14MiKw7ppD5O83fr_L-52" value="" style="sketch=0;points=[[0,0,0],[0.25,0,0],[0.5,0,0],[0.75,0,0],[1,0,0],[0,1,0],[0.25,1,0],[0.5,1,0],[0.75,1,0],[1,1,0],[0,0.25,0],[0,0.5,0],[0,0.75,0],[1,0.25,0],[1,0.5,0],[1,0.75,0]];outlineConnect=0;fontColor=#232F3E;fillColor=#C925D1;strokeColor=#ffffff;dashed=0;verticalLabelPosition=bottom;verticalAlign=top;align=center;html=1;fontSize=12;fontStyle=0;aspect=fixed;shape=mxgraph.aws4.resourceIcon;resIcon=mxgraph.aws4.rds;" parent="XC14MiKw7ppD5O83fr_L-51" vertex="1">
          <mxGeometry x="106" y="60" width="78" height="78" as="geometry" />
        </mxCell>
        <mxCell id="XC14MiKw7ppD5O83fr_L-70" value="RDS_host&lt;br&gt;port 5432" style="text;html=1;align=center;verticalAlign=middle;whiteSpace=wrap;rounded=0;" parent="XC14MiKw7ppD5O83fr_L-51" vertex="1">
          <mxGeometry x="120" y="138" width="60" height="30" as="geometry" />
        </mxCell>
        <mxCell id="XC14MiKw7ppD5O83fr_L-72" value="" style="endArrow=classic;html=1;rounded=0;exitX=0.5;exitY=0;exitDx=0;exitDy=0;exitPerimeter=0;" parent="XC14MiKw7ppD5O83fr_L-51" edge="1">
          <mxGeometry width="50" height="50" relative="1" as="geometry">
            <mxPoint x="140" y="60" as="sourcePoint" />
            <mxPoint x="140" y="-10" as="targetPoint" />
          </mxGeometry>
        </mxCell>
        <mxCell id="XC14MiKw7ppD5O83fr_L-63" value="" style="endArrow=classic;html=1;rounded=0;entryX=0.5;entryY=1;entryDx=0;entryDy=0;entryPerimeter=0;" parent="rcaAGyWdgtO9xhbZFQl7-13" edge="1">
          <mxGeometry width="50" height="50" relative="1" as="geometry">
            <mxPoint x="1399.23" y="709.5" as="sourcePoint" />
            <mxPoint x="1399.23" y="534.5" as="targetPoint" />
          </mxGeometry>
        </mxCell>
        <mxCell id="XC14MiKw7ppD5O83fr_L-64" value="Security group" style="fillColor=none;strokeColor=#DD3522;verticalAlign=top;fontStyle=0;fontColor=#DD3522;whiteSpace=wrap;html=1;" parent="rcaAGyWdgtO9xhbZFQl7-13" vertex="1">
          <mxGeometry x="380" y="580" width="70" height="60" as="geometry" />
        </mxCell>
        <mxCell id="XC14MiKw7ppD5O83fr_L-65" value="Security group" style="fillColor=none;strokeColor=#DD3522;verticalAlign=top;fontStyle=0;fontColor=#DD3522;whiteSpace=wrap;html=1;" parent="rcaAGyWdgtO9xhbZFQl7-13" vertex="1">
          <mxGeometry x="940" y="580" width="70" height="60" as="geometry" />
        </mxCell>
        <mxCell id="XC14MiKw7ppD5O83fr_L-66" value="Security group" style="fillColor=none;strokeColor=#DD3522;verticalAlign=top;fontStyle=0;fontColor=#DD3522;whiteSpace=wrap;html=1;" parent="rcaAGyWdgtO9xhbZFQl7-13" vertex="1">
          <mxGeometry x="1470" y="580" width="70" height="60" as="geometry" />
        </mxCell>
        <mxCell id="rcaAGyWdgtO9xhbZFQl7-14" value="" style="sketch=0;points=[[0,0,0],[0.25,0,0],[0.5,0,0],[0.75,0,0],[1,0,0],[0,1,0],[0.25,1,0],[0.5,1,0],[0.75,1,0],[1,1,0],[0,0.25,0],[0,0.5,0],[0,0.75,0],[1,0.25,0],[1,0.5,0],[1,0.75,0]];outlineConnect=0;fontColor=#232F3E;fillColor=#ED7100;strokeColor=#ffffff;dashed=0;verticalLabelPosition=bottom;verticalAlign=top;align=center;html=1;fontSize=12;fontStyle=0;aspect=fixed;shape=mxgraph.aws4.resourceIcon;resIcon=mxgraph.aws4.fargate;movable=1;resizable=1;rotatable=1;deletable=1;editable=1;locked=0;connectable=1;" parent="rcaAGyWdgtO9xhbZFQl7-13" vertex="1">
          <mxGeometry x="70" y="400" width="78" height="78" as="geometry" />
        </mxCell>
        <mxCell id="XC14MiKw7ppD5O83fr_L-74" value="Redis_cluster&lt;br&gt;port 6379" style="text;html=1;align=center;verticalAlign=middle;whiteSpace=wrap;rounded=0;" parent="rcaAGyWdgtO9xhbZFQl7-13" vertex="1">
          <mxGeometry x="820" y="840" width="90" height="30" as="geometry" />
        </mxCell>
        <mxCell id="XC14MiKw7ppD5O83fr_L-77" style="edgeStyle=elbowEdgeStyle;rounded=0;orthogonalLoop=1;jettySize=auto;html=1;exitX=0.5;exitY=1;exitDx=0;exitDy=0;exitPerimeter=0;entryX=0.5;entryY=0;entryDx=0;entryDy=0;entryPerimeter=0;elbow=vertical;" parent="rcaAGyWdgtO9xhbZFQl7-13" source="rcaAGyWdgtO9xhbZFQl7-15" target="XC14MiKw7ppD5O83fr_L-16" edge="1">
          <mxGeometry relative="1" as="geometry">
            <Array as="points">
              <mxPoint x="600" y="340" />
            </Array>
          </mxGeometry>
        </mxCell>
        <mxCell id="XC14MiKw7ppD5O83fr_L-78" style="edgeStyle=orthogonalEdgeStyle;rounded=0;orthogonalLoop=1;jettySize=auto;html=1;exitX=0.5;exitY=1;exitDx=0;exitDy=0;exitPerimeter=0;entryX=0.5;entryY=0;entryDx=0;entryDy=0;entryPerimeter=0;" parent="rcaAGyWdgtO9xhbZFQl7-13" source="rcaAGyWdgtO9xhbZFQl7-15" target="XC14MiKw7ppD5O83fr_L-44" edge="1">
          <mxGeometry relative="1" as="geometry" />
        </mxCell>
        <mxCell id="XC14MiKw7ppD5O83fr_L-79" style="edgeStyle=orthogonalEdgeStyle;rounded=0;orthogonalLoop=1;jettySize=auto;html=1;exitX=0.5;exitY=1;exitDx=0;exitDy=0;exitPerimeter=0;entryX=0.5;entryY=0;entryDx=0;entryDy=0;entryPerimeter=0;" parent="rcaAGyWdgtO9xhbZFQl7-13" source="rcaAGyWdgtO9xhbZFQl7-15" target="XC14MiKw7ppD5O83fr_L-50" edge="1">
          <mxGeometry relative="1" as="geometry" />
        </mxCell>
        <mxCell id="XC14MiKw7ppD5O83fr_L-80" value="" style="endArrow=classic;html=1;rounded=0;entryX=0.5;entryY=1;entryDx=0;entryDy=0;entryPerimeter=0;" parent="rcaAGyWdgtO9xhbZFQl7-13" source="XC14MiKw7ppD5O83fr_L-73" target="XC14MiKw7ppD5O83fr_L-44" edge="1">
          <mxGeometry width="50" height="50" relative="1" as="geometry">
            <mxPoint x="770" y="630" as="sourcePoint" />
            <mxPoint x="820" y="580" as="targetPoint" />
          </mxGeometry>
        </mxCell>
        <mxCell id="XC14MiKw7ppD5O83fr_L-36" value="" style="sketch=0;outlineConnect=0;fontColor=#232F3E;gradientColor=none;fillColor=#8C4FFF;strokeColor=none;dashed=0;verticalLabelPosition=bottom;verticalAlign=top;align=center;html=1;fontSize=12;fontStyle=0;aspect=fixed;pointerEvents=1;shape=mxgraph.aws4.internet_gateway;" parent="XC14MiKw7ppD5O83fr_L-34" vertex="1">
          <mxGeometry x="877" width="70" height="70" as="geometry" />
        </mxCell>
        <mxCell id="XC14MiKw7ppD5O83fr_L-75" style="edgeStyle=orthogonalEdgeStyle;rounded=0;orthogonalLoop=1;jettySize=auto;html=1;exitX=0.5;exitY=0;exitDx=0;exitDy=0;exitPerimeter=0;" parent="XC14MiKw7ppD5O83fr_L-34" source="rcaAGyWdgtO9xhbZFQl7-15" target="XC14MiKw7ppD5O83fr_L-36" edge="1">
          <mxGeometry relative="1" as="geometry" />
        </mxCell>
        <mxCell id="XC14MiKw7ppD5O83fr_L-76" value="HTTP Port 80" style="edgeLabel;html=1;align=center;verticalAlign=middle;resizable=0;points=[];" parent="XC14MiKw7ppD5O83fr_L-75" vertex="1" connectable="0">
          <mxGeometry x="-0.539" y="3" relative="1" as="geometry">
            <mxPoint as="offset" />
          </mxGeometry>
        </mxCell>
        <mxCell id="XC14MiKw7ppD5O83fr_L-53" value="ECR" style="text;html=1;align=center;verticalAlign=middle;whiteSpace=wrap;rounded=0;" parent="rcaAGyWdgtO9xhbZFQl7-11" vertex="1">
          <mxGeometry x="1970" y="668" width="60" height="30" as="geometry" />
        </mxCell>
        <mxCell id="XC14MiKw7ppD5O83fr_L-54" value="" style="sketch=0;points=[[0,0,0],[0.25,0,0],[0.5,0,0],[0.75,0,0],[1,0,0],[0,1,0],[0.25,1,0],[0.5,1,0],[0.75,1,0],[1,1,0],[0,0.25,0],[0,0.5,0],[0,0.75,0],[1,0.25,0],[1,0.5,0],[1,0.75,0]];outlineConnect=0;fontColor=#232F3E;fillColor=#ED7100;strokeColor=#ffffff;dashed=0;verticalLabelPosition=bottom;verticalAlign=top;align=center;html=1;fontSize=12;fontStyle=0;aspect=fixed;shape=mxgraph.aws4.resourceIcon;resIcon=mxgraph.aws4.ecs;" parent="rcaAGyWdgtO9xhbZFQl7-11" vertex="1">
          <mxGeometry x="1961" y="730" width="78" height="78" as="geometry" />
        </mxCell>
        <mxCell id="XC14MiKw7ppD5O83fr_L-55" value="&lt;span style=&quot;color: rgb(0, 0, 0); font-family: Helvetica; font-size: 12px; font-style: normal; font-variant-ligatures: normal; font-variant-caps: normal; font-weight: 400; letter-spacing: normal; orphans: 2; text-indent: 0px; text-transform: none; widows: 2; word-spacing: 0px; -webkit-text-stroke-width: 0px; white-space: normal; background-color: rgb(251, 251, 251); text-decoration-thickness: initial; text-decoration-style: initial; text-decoration-color: initial; float: none; display: inline !important;&quot;&gt;ECS&lt;/span&gt;" style="text;whiteSpace=wrap;html=1;align=center;" parent="rcaAGyWdgtO9xhbZFQl7-11" vertex="1">
          <mxGeometry x="1970" y="808" width="60" height="40" as="geometry" />
        </mxCell>
        <mxCell id="XC14MiKw7ppD5O83fr_L-57" style="edgeStyle=orthogonalEdgeStyle;rounded=0;orthogonalLoop=1;jettySize=auto;html=1;exitX=0.5;exitY=1;exitDx=0;exitDy=0;exitPerimeter=0;entryX=0.5;entryY=0;entryDx=0;entryDy=0;entryPerimeter=0;" parent="rcaAGyWdgtO9xhbZFQl7-11" source="rcaAGyWdgtO9xhbZFQl7-17" target="XC14MiKw7ppD5O83fr_L-54" edge="1">
          <mxGeometry relative="1" as="geometry" />
        </mxCell>
        <mxCell id="XC14MiKw7ppD5O83fr_L-58" style="edgeStyle=orthogonalEdgeStyle;rounded=0;orthogonalLoop=1;jettySize=auto;html=1;exitX=0;exitY=0.5;exitDx=0;exitDy=0;exitPerimeter=0;endArrow=none;endFill=0;" parent="rcaAGyWdgtO9xhbZFQl7-11" source="XC14MiKw7ppD5O83fr_L-54" edge="1">
          <mxGeometry relative="1" as="geometry">
            <mxPoint x="480" y="769" as="targetPoint" />
          </mxGeometry>
        </mxCell>
        <mxCell id="TffHe5nYvwenXI07YWa4-4" value="" style="rounded=0;whiteSpace=wrap;html=1;" parent="1" vertex="1">
          <mxGeometry x="1640" y="350" width="340" height="266" as="geometry" />
        </mxCell>
        <mxCell id="TffHe5nYvwenXI07YWa4-1" value="" style="image;sketch=0;aspect=fixed;html=1;points=[];align=center;fontSize=12;image=img/lib/mscae/Docker.svg;" parent="1" vertex="1">
          <mxGeometry x="1720" y="432.2" width="50" height="41" as="geometry" />
        </mxCell>
        <mxCell id="TffHe5nYvwenXI07YWa4-2" value="" style="image;sketch=0;aspect=fixed;html=1;points=[];align=center;fontSize=12;image=img/lib/mscae/VM_Linux.svg;" parent="1" vertex="1">
          <mxGeometry x="1640" y="350" width="50" height="46" as="geometry" />
        </mxCell>
        <mxCell id="TffHe5nYvwenXI07YWa4-6" value="Kutt application:&lt;div&gt;&lt;ol&gt;&lt;li&gt;Authenticate to ECR&lt;/li&gt;&lt;li&gt;Docker build&lt;/li&gt;&lt;li&gt;tag container&lt;/li&gt;&lt;li&gt;push it to ECR&lt;/li&gt;&lt;/ol&gt;&lt;/div&gt;" style="text;html=1;align=left;verticalAlign=middle;whiteSpace=wrap;rounded=0;" parent="1" vertex="1">
          <mxGeometry x="1790" y="406" width="150" height="93.4" as="geometry" />
        </mxCell>
        <mxCell id="TffHe5nYvwenXI07YWa4-8" value="" style="endArrow=classic;startArrow=classic;html=1;rounded=0;exitX=0.5;exitY=0;exitDx=0;exitDy=0;exitPerimeter=0;entryX=0.5;entryY=1;entryDx=0;entryDy=0;" parent="1" source="rcaAGyWdgtO9xhbZFQl7-17" target="TffHe5nYvwenXI07YWa4-4" edge="1">
          <mxGeometry width="50" height="50" relative="1" as="geometry">
            <mxPoint x="1390" y="840" as="sourcePoint" />
            <mxPoint x="1440" y="790" as="targetPoint" />
          </mxGeometry>
        </mxCell>
        <mxCell id="XC14MiKw7ppD5O83fr_L-61" value="" style="endArrow=classic;html=1;rounded=0;" parent="1" target="XC14MiKw7ppD5O83fr_L-16" edge="1">
          <mxGeometry width="50" height="50" relative="1" as="geometry">
            <mxPoint x="290" y="1480" as="sourcePoint" />
            <mxPoint x="1060" y="1500" as="targetPoint" />
          </mxGeometry>
        </mxCell>
        <mxCell id="XC14MiKw7ppD5O83fr_L-62" value="" style="endArrow=classic;html=1;rounded=0;entryX=0.5;entryY=1;entryDx=0;entryDy=0;entryPerimeter=0;" parent="1" target="XC14MiKw7ppD5O83fr_L-44" edge="1">
          <mxGeometry width="50" height="50" relative="1" as="geometry">
            <mxPoint x="850" y="1480" as="sourcePoint" />
            <mxPoint x="300" y="1315" as="targetPoint" />
          </mxGeometry>
        </mxCell>
        <mxCell id="XC14MiKw7ppD5O83fr_L-71" value="" style="endArrow=classic;html=1;rounded=0;exitX=0.5;exitY=0;exitDx=0;exitDy=0;exitPerimeter=0;" parent="1" source="XC14MiKw7ppD5O83fr_L-40" edge="1">
          <mxGeometry width="50" height="50" relative="1" as="geometry">
            <mxPoint x="960" y="1540" as="sourcePoint" />
            <mxPoint x="295" y="1480" as="targetPoint" />
          </mxGeometry>
        </mxCell>
        <mxCell id="-X1bvzDzg-W0tgJUo9Q0-1" value="Setting environment for running application" style="text;html=1;align=center;verticalAlign=middle;whiteSpace=wrap;rounded=0;fontSize=25;" vertex="1" parent="1">
          <mxGeometry x="1625" y="270" width="370" height="60" as="geometry" />
        </mxCell>
        <mxCell id="-X1bvzDzg-W0tgJUo9Q0-2" value="AWS HLD Architecture" style="text;html=1;align=center;verticalAlign=middle;whiteSpace=wrap;rounded=0;fontSize=25;" vertex="1" parent="1">
          <mxGeometry x="720" y="610" width="370" height="60" as="geometry" />
        </mxCell>
      </root>
    </mxGraphModel>
  </diagram>
</mxfile>
